<svg xmlns="http://www.w3.org/2000/svg" xmlns:xlink="http://www.w3.org/1999/xlink" class="isolate-layer-editing" app-context="doc-2d" x="0px" y="0px" width="370" height="160" jvs-fullPath="_new_1509370821186/Untitled"><title/><desc/><defs/><g id="jvs-guides" transform="matrix(1 0 0 1 0 0)"/><g id="jvs-content" enable-background="new"><g transform="matrix(1,0,0,1,0,0)" name="Layer" jvs-layer-color="#fb0094" class="jvs-layer"><g transform="matrix(1 0 0 1 112.655 302.964)" fill="rgb(255,255,255)" stroke=" rgb(255, 255, 255)" class="hidden" fill-opacity="0.5"><path d="M20.410 9.082Q30.176 9.082 34.277 20.801Q34.863 21.973 34.863 24.219Q34.863 26.660 31.836 26.953Q29.199 26.953 28.516 20.508Q25.195 14.941 21.094 14.941L19.727 14.941Q13.770 14.941 12.695 26.660L12.695 26.953Q12.695 41.016 30.566 69.434Q36.133 80.273 36.133 87.598Q36.133 97.559 25.977 103.027L22.559 103.613Q13.574 103.613 5.371 91.309Q3.809 88.574 3.809 85.449Q3.809 80.469 7.227 79.883L8.105 79.883Q10.254 81.348 10.254 82.617L9.668 85.449L9.668 85.645Q9.668 91.992 20.117 97.363L21.973 97.754L22.852 97.754Q27.930 97.754 30.273 89.063L30.273 87.891Q30.273 77.441 16.699 57.129Q6.934 37.891 6.934 26.953Q6.934 14.648 16.406 9.766L20.410 9.082ZM45.313 5.469Q47.461 5.469 47.852 8.887L47.852 14.355Q47.852 34.180 47.559 67.090Q51.172 63.477 54.297 63.477Q62.207 63.477 64.551 80.664Q64.844 93.457 66.016 102.832Q66.016 104.492 62.891 105.859Q59.570 104.199 59.570 102.246L59.961 101.953L59.961 101.563Q58.496 72.070 56.836 72.070Q55.664 69.727 54.688 69.336L53.711 69.336Q48.828 73.633 48.828 79.785L49.023 100.781Q47.852 103.613 45.996 103.613Q42.773 103.613 41.895 94.629Q42.578 88.672 42.578 84.375L42.578 84.082L42.383 83.789L42.578 83.496L42.578 81.055L43.164 36.426Q41.992 25.488 41.992 14.941L41.992 9.082Q42.188 5.469 45.313 5.469ZM79.980 65.137Q85.449 65.137 87.402 75Q84.863 86.035 76.953 86.035L76.563 86.035L76.563 86.328Q78.125 95.215 84.863 95.215Q90.039 95.215 93.262 86.328L95.410 85.449Q97.559 85.449 98.145 88.770Q98.145 94.824 88.672 100.195L83.984 101.074Q75.586 101.074 71.387 89.063Q70.215 84.277 70.215 81.152L70.215 79.883Q70.215 69.922 78.516 65.430L79.980 65.137M76.367 77.441L76.367 77.637L78.516 79.883Q79.980 79.883 81.250 75.879L81.250 74.316Q80.762 71.289 79.980 71.289L79.395 71.289Q77.930 71.289 76.367 77.441ZM107.520 13.477Q108.984 13.574 110.254 15.918Q109.570 16.992 109.375 19.824L109.277 21.094L109.863 59.570Q109.375 85.742 110.449 97.949L110.645 98.730Q109.766 100.586 107.813 100.488Q103.418 100.195 104.297 88.379Q103.711 81.934 103.711 29.102Q103.125 25.879 103.418 20.605L103.418 20.215Q103.906 13.281 107.520 13.477ZM124.219 13.477Q125.684 13.574 126.953 15.918Q126.270 16.992 126.074 19.824L125.977 21.094L126.563 59.570Q126.074 85.742 127.148 97.949L127.344 98.730Q126.465 100.586 124.512 100.488Q120.117 100.195 120.996 88.379Q120.410 81.934 120.410 29.102Q119.824 25.879 120.117 20.605L120.117 20.215Q120.605 13.281 124.219 13.477ZM144.824 65.137Q150.293 65.137 152.246 75Q149.707 86.035 141.797 86.035L141.406 86.035L141.406 86.328Q142.969 95.215 149.707 95.215Q154.883 95.215 158.105 86.328L160.254 85.449Q162.402 85.449 162.988 88.770Q162.988 94.824 153.516 100.195L148.828 101.074Q140.430 101.074 136.230 89.063Q135.059 84.277 135.059 81.152L135.059 79.883Q135.059 69.922 143.359 65.430L144.824 65.137M141.211 77.441L141.211 77.637L143.359 79.883Q144.824 79.883 146.094 75.879L146.094 74.316Q145.605 71.289 144.824 71.289L144.238 71.289Q142.773 71.289 141.211 77.441ZM168.750 65.820Q171.777 65.820 171.777 75L171.777 80.957Q171.777 92.578 176.758 92.578L177.051 92.578Q180.469 89.160 180.469 83.398L180.469 71.973Q180.469 68.457 184.766 67.090L185.938 67.090Q188.086 68.750 188.086 69.824L186.328 83.984L186.621 108.496L186.621 113.184Q186.621 149.512 174.023 154.980L171.582 155.664Q164.355 155.664 159.277 145.215L155.859 134.766Q156.738 132.227 158.594 132.227L159.473 132.227Q161.328 132.227 164.746 143.945Q168.164 149.707 171.191 149.707Q179.492 149.707 181.055 113.770L181.055 107.617L180.664 97.461L176.367 98.438Q167.285 98.438 165.918 80.566L165.625 67.969Q166.504 65.820 168.750 65.820ZM262.207 7.813Q264.551 8.594 264.551 11.230L263.379 48.145L265.137 83.789Q265.137 101.367 261.426 101.367L260.840 101.367Q256.055 101.367 246.680 73.730Q246.680 72.168 245.801 71.777Q240.137 89.941 234.375 100.488L232.617 100.684Q229.590 100.684 228.906 92.676Q219.336 38.867 219.336 13.672Q219.336 10.254 222.461 10.254Q224.902 10.254 225.293 14.355Q225.293 39.258 233.887 86.816L234.082 86.816Q237.207 81.934 242.969 60.059Q242.969 55.176 246.387 55.176Q249.219 55.176 249.805 61.719Q252.441 76.367 258.691 88.770L259.082 89.063L259.375 88.770L259.375 83.789L257.520 47.266L258.691 10.254Q258.691 8.105 262.207 7.813ZM286.816 67.285L292.676 68.262L292.676 67.969Q294.824 67.969 295.996 71.387L295.703 77.539L295.703 81.836Q295.703 91.309 298.438 95.996Q297.656 98.438 295.410 98.438Q292.188 98.438 290.723 91.016L290.527 89.453L289.648 89.453Q286.133 97.754 279.688 100.488L278.223 100.879Q269.824 98.535 269.824 88.574L269.824 87.988Q269.824 75.586 281.836 68.262L286.816 67.285M275.684 89.844Q276.367 94.727 278.809 94.727L279.102 94.727Q282.520 94.727 289.844 74.121L289.844 73.828L287.012 73.242L286.816 73.242Q279.004 73.242 275.684 86.719L275.684 89.844ZM319.141 65.430Q329.004 66.211 327.148 89.160L326.367 97.852Q325.781 101.367 322.949 101.172Q320.313 100.977 320.605 97.656L321.289 88.184Q322.656 71.484 318.359 71.191Q313.770 70.801 311.719 88.574L312.109 99.121Q311.914 101.172 308.789 101.270Q305.176 100.977 306.055 90.918L303.711 68.555Q303.906 66.309 307.324 66.113Q309.375 66.211 309.766 70.508L310.156 70.605Q314.551 65.137 319.141 65.430ZM353.516 64.941Q357.227 64.941 357.227 75.293Q357.813 80.957 357.813 101.172Q357.813 126.074 353.223 145.801Q349.316 153.223 342.676 153.223Q333.789 153.223 323.340 142.676L322.754 141.211Q323.438 138.086 325.879 138.086Q326.758 138.086 330.762 142.090Q337.891 147.363 341.797 147.363L343.652 147.363Q349.707 147.363 350.684 123.047Q352.051 112.012 352.051 99.609L352.051 96.191Q347.461 98.438 344.922 98.438Q336.914 98.438 333.594 88.867Q332.227 85.352 332.227 81.445Q332.227 70.605 341.211 66.211L345.313 65.820Q347.559 65.820 349.805 67.285L350.488 67.285Q352.344 64.941 353.516 64.941M342.090 71.582Q338.184 75 338.184 82.031Q338.184 91.016 344.043 92.578L345.313 92.578Q350.684 92.578 350.684 82.715Q349.902 71.973 345.508 71.973L342.090 71.582Z" stroke-width="1" stroke="#000000" fill="none" transform="matrix(1 0 0 1 0 0)"/></g></g><g transform="matrix(1,0,0,1,0,0)" name="G" jvs-layer-color="#fb0094" class="jvs-layer isolate-layer selected"><path d="M 20.409997940063477 9.08199691772461 Q 30.175996780395508 9.08199691772461 34.277000427246094 20.80099868774414 Q 34.862998962402344 21.97299575805664 34.862998962402344 24.218997955322266 Q 34.862998962402344 26.65999984741211 31.835996627807617 26.952999114990234 Q 29.19899559020996 26.952999114990234 28.5159969329834 20.507999420166016 Q 25.194997787475586 14.940998077392578 21.093996047973633 14.940998077392578 L 19.726999282836914 14.940998077392578 Q 13.769998550415039 14.940998077392578 12.694997787475586 26.65999984741211 L 12.694997787475586 26.952999114990234 Q 12.694997787475586 41.015995025634766 30.565996170043945 69.43400573730469 Q 36.13299560546875 80.27301025390625 36.13299560546875 87.59800720214844 Q 36.13299560546875 97.55900573730469 25.97699546813965 103.02700805664062 L 22.558996200561523 103.61300659179688 Q 13.573999404907227 103.61300659179688 5.371000289916992 91.30900573730469 Q 3.809001922607422 88.57400512695312 3.809001922607422 85.44900512695312 Q 3.809001922607422 80.46900939941406 7.226999282836914 79.88301086425781 L 8.104999542236328 79.88301086425781 Q 10.25400161743164 81.34800720214844 10.25400161743164 82.61700439453125 L 9.668001174926758 85.44900512695312 L 9.668001174926758 85.64500427246094 Q 9.668001174926758 91.99200439453125 20.11699867248535 97.36300659179688 L 21.972997665405273 97.75399780273438 L 22.851999282836914 97.75399780273438 Q 27.92999839782715 97.75399780273438 30.273000717163086 89.06300354003906 L 30.273000717163086 87.89100646972656 Q 30.273000717163086 77.44100952148438 16.69899559020996 57.12900161743164 Q 6.933996200561523 37.890995025634766 6.933996200561523 26.952999114990234 Q 6.933996200561523 14.647998809814453 16.4060001373291 9.765995025634766 L 20.409997940063477 9.08199691772461 Z M 45.31299591064453 5.468997955322266 Q 47.46099853515625 5.468997955322266 47.85199737548828 8.88699722290039 L 47.85199737548828 14.354999542236328 Q 47.85199737548828 34.179996490478516 47.558998107910156 67.08999633789062 Q 51.1719970703125 63.47700119018555 54.2969970703125 63.47700119018555 Q 62.206993103027344 63.47700119018555 64.55099487304688 80.66400146484375 Q 64.843994140625 93.45700073242188 66.0159912109375 102.83200073242188 Q 66.0159912109375 104.49200439453125 62.8909912109375 105.8590087890625 Q 59.56999969482422 104.19900512695312 59.56999969482422 102.24600219726562 L 59.96099090576172 101.9530029296875 L 59.96099090576172 101.56300354003906 Q 58.495994567871094 72.07000732421875 56.83599090576172 72.07000732421875 Q 55.66399383544922 69.72700500488281 54.68799591064453 69.33599853515625 L 53.71099090576172 69.33599853515625 Q 48.82799530029297 73.63301086425781 48.82799530029297 79.78500366210938 L 49.02299499511719 100.781005859375 Q 47.85199737548828 103.61300659179688 45.995994567871094 103.61300659179688 Q 42.77299499511719 103.61300659179688 41.894996643066406 94.62899780273438 Q 42.57799530029297 88.6719970703125 42.57799530029297 84.375 L 42.57799530029297 84.08200073242188 L 42.38299560546875 83.78900146484375 L 42.57799530029297 83.49600219726562 L 42.57799530029297 81.05500793457031 L 43.16400146484375 36.42599868774414 Q 41.99199676513672 25.48800277709961 41.99199676513672 14.940998077392578 L 41.99199676513672 9.08199691772461 Q 42.18799591064453 5.468997955322266 45.31299591064453 5.468997955322266 Z M 79.97999572753906 65.13700866699219 Q 85.44898986816406 65.13700866699219 87.40199279785156 75 Q 84.86299133300781 86.03500366210938 76.95299530029297 86.03500366210938 L 76.56299591064453 86.03500366210938 L 76.56299591064453 86.3280029296875 Q 78.125 95.21499633789062 84.86299133300781 95.21499633789062 Q 90.03899383544922 95.21499633789062 93.26200103759766 86.3280029296875 L 95.40999603271484 85.44900512695312 Q 97.55899047851562 85.44900512695312 98.14498901367188 88.77000427246094 Q 98.14498901367188 94.82400512695312 88.67198944091797 100.19500732421875 L 83.98399353027344 101.07400512695312 Q 75.58599090576172 101.07400512695312 71.38699340820312 89.06300354003906 Q 70.2149887084961 84.27700805664062 70.2149887084961 81.15200805664062 L 70.2149887084961 79.88301086425781 Q 70.2149887084961 69.9219970703125 78.5159912109375 65.43000793457031 L 79.97999572753906 65.13700866699219 M 76.36698913574219 77.44100952148438 L 76.36698913574219 77.63700866699219 L 78.5159912109375 79.88301086425781 Q 79.97999572753906 79.88301086425781 81.24999237060547 75.87899780273438 L 81.24999237060547 74.31600952148438 Q 80.76199340820312 71.28900146484375 79.97999572753906 71.28900146484375 L 79.39498901367188 71.28900146484375 Q 77.92999267578125 71.28900146484375 76.36698913574219 77.44100952148438 Z M 107.51998138427734 13.477001190185547 Q 108.98399353027344 13.57400131225586 110.25398254394531 15.91799545288086 Q 109.56999206542969 16.992000579833984 109.375 19.82400131225586 L 109.27699279785156 21.093997955322266 L 109.86299133300781 59.56999588012695 Q 109.375 85.74200439453125 110.44898986816406 97.94900512695312 L 110.64498901367188 98.73001098632812 Q 109.7659912109375 100.58599853515625 107.81299591064453 100.48800659179688 Q 103.4179916381836 100.19500732421875 104.29698181152344 88.37899780273438 Q 103.71099090576172 81.93400573730469 103.71099090576172 29.102001190185547 Q 103.12499237060547 25.87900161743164 103.4179916381836 20.604999542236328 L 103.4179916381836 20.21500015258789 Q 103.90599060058594 13.281002044677734 107.51998138427734 13.477001190185547 Z M 124.218994140625 13.477001190185547 Q 125.68399047851562 13.57400131225586 126.95298767089844 15.91799545288086 Q 126.26998901367188 16.992000579833984 126.07398986816406 19.82400131225586 L 125.97698974609375 21.093997955322266 L 126.56300354003906 59.56999588012695 Q 126.07398986816406 85.74200439453125 127.14799499511719 97.94900512695312 L 127.343994140625 98.73001098632812 Q 126.46499633789062 100.58599853515625 124.51199340820312 100.48800659179688 Q 120.11698913574219 100.19500732421875 120.99598693847656 88.37899780273438 Q 120.40998840332031 81.93400573730469 120.40998840332031 29.102001190185547 Q 119.82398986816406 25.87900161743164 120.11698913574219 20.604999542236328 L 120.11698913574219 20.21500015258789 Q 120.60499572753906 13.281002044677734 124.218994140625 13.477001190185547 Z M 144.82398986816406 65.13700866699219 Q 150.29298400878906 65.13700866699219 152.24598693847656 75 Q 149.70700073242188 86.03500366210938 141.79698181152344 86.03500366210938 L 141.40599060058594 86.03500366210938 L 141.40599060058594 86.3280029296875 Q 142.968994140625 95.21499633789062 149.70700073242188 95.21499633789062 Q 154.8829803466797 95.21499633789062 158.10498046875 86.3280029296875 L 160.2539825439453 85.44900512695312 Q 162.40199279785156 85.44900512695312 162.98800659179688 88.77000427246094 Q 162.98800659179688 94.82400512695312 153.51600646972656 100.19500732421875 L 148.82798767089844 101.07400512695312 Q 140.4299774169922 101.07400512695312 136.22999572753906 89.06300354003906 Q 135.05899047851562 84.27700805664062 135.05899047851562 81.15200805664062 L 135.05899047851562 79.88301086425781 Q 135.05899047851562 69.9219970703125 143.35897827148438 65.43000793457031 L 144.82398986816406 65.13700866699219 M 141.2109832763672 77.44100952148438 L 141.2109832763672 77.63700866699219 L 143.35897827148438 79.88301086425781 Q 144.82398986816406 79.88301086425781 146.093994140625 75.87899780273438 L 146.093994140625 74.31600952148438 Q 145.60499572753906 71.28900146484375 144.82398986816406 71.28900146484375 L 144.2379913330078 71.28900146484375 Q 142.7729949951172 71.28900146484375 141.2109832763672 77.44100952148438 Z M 168.74998474121094 65.82000732421875 Q 171.77699279785156 65.82000732421875 171.77699279785156 75 L 171.77699279785156 80.95700073242188 Q 171.77699279785156 92.5780029296875 176.7579803466797 92.5780029296875 L 177.0509796142578 92.5780029296875 Q 180.46897888183594 89.16000366210938 180.46897888183594 83.39801025390625 L 180.46897888183594 71.97300720214844 Q 180.46897888183594 68.45700073242188 184.7659912109375 67.08999633789062 L 185.93797302246094 67.08999633789062 Q 188.0859832763672 68.75 188.0859832763672 69.82400512695312 L 186.3280029296875 83.9840087890625 L 186.62098693847656 108.49600219726562 L 186.62098693847656 113.18400573730469 Q 186.62098693847656 149.51199340820312 174.02297973632812 154.97999572753906 L 171.5819854736328 155.66400146484375 Q 164.35499572753906 155.66400146484375 159.27699279785156 145.21499633789062 L 155.85899353027344 134.76600646972656 Q 156.73800659179688 132.2270050048828 158.59397888183594 132.2270050048828 L 159.47299194335938 132.2270050048828 Q 161.32798767089844 132.2270050048828 164.74598693847656 143.94500732421875 Q 168.16400146484375 149.70700073242188 171.19097900390625 149.70700073242188 Q 179.4919891357422 149.70700073242188 181.0549774169922 113.77000427246094 L 181.0549774169922 107.61700439453125 L 180.6639862060547 97.46099853515625 L 176.36700439453125 98.43800354003906 Q 167.2849884033203 98.43800354003906 165.91799926757812 80.56600952148438 L 165.625 67.96900939941406 Q 166.5039825439453 65.82000732421875 168.74998474121094 65.82000732421875 Z M 262.2070007324219 7.812999725341797 Q 264.5509948730469 8.593997955322266 264.5509948730469 11.229999542236328 L 263.3789978027344 48.14500045776367 L 265.1369934082031 83.78900146484375 Q 265.1369934082031 101.36700439453125 261.4259948730469 101.36700439453125 L 260.84002685546875 101.36700439453125 Q 256.05499267578125 101.36700439453125 246.6799774169922 73.73001098632812 Q 246.6799774169922 72.16799926757812 245.8009796142578 71.77700805664062 Q 240.13697814941406 89.94100952148438 234.37498474121094 100.48800659179688 L 232.61700439453125 100.68400573730469 Q 229.58998107910156 100.68400573730469 228.90597534179688 92.67601013183594 Q 219.33599853515625 38.867000579833984 219.33599853515625 13.672000885009766 Q 219.33599853515625 10.25400161743164 222.46096801757812 10.25400161743164 Q 224.90199279785156 10.25400161743164 225.29296875 14.354999542236328 Q 225.29296875 39.257999420166016 233.88697814941406 86.81600952148438 L 234.0819854736328 86.81600952148438 Q 237.2069854736328 81.93400573730469 242.96897888183594 60.05899429321289 Q 242.96897888183594 55.17599868774414 246.38697814941406 55.17599868774414 Q 249.21897888183594 55.17599868774414 249.8049774169922 61.718997955322266 Q 252.4409942626953 76.36700439453125 258.6910095214844 88.77000427246094 L 259.0820007324219 89.06300354003906 L 259.375 88.77000427246094 L 259.375 83.78900146484375 L 257.5199890136719 47.265995025634766 L 258.6910095214844 10.25400161743164 Q 258.6910095214844 8.104999542236328 262.2070007324219 7.812999725341797 Z M 286.8160095214844 67.28500366210938 L 292.6759948730469 68.26200866699219 L 292.6759948730469 67.96900939941406 Q 294.8240051269531 67.96900939941406 295.9960021972656 71.38700866699219 L 295.7030029296875 77.53900146484375 L 295.7030029296875 81.83599853515625 Q 295.7030029296875 91.30900573730469 298.43798828125 95.99600219726562 Q 297.656005859375 98.43800354003906 295.4100036621094 98.43800354003906 Q 292.18798828125 98.43800354003906 290.7229919433594 91.01600646972656 L 290.5270080566406 89.4530029296875 L 289.64801025390625 89.4530029296875 Q 286.13299560546875 97.75399780273438 279.68798828125 100.48800659179688 L 278.2229919433594 100.87899780273438 Q 269.8240051269531 98.53500366210938 269.8240051269531 88.57400512695312 L 269.8240051269531 87.98800659179688 Q 269.8240051269531 75.58599853515625 281.83599853515625 68.26200866699219 L 286.8160095214844 67.28500366210938 M 275.6839904785156 89.84400939941406 Q 276.36700439453125 94.72700500488281 278.8089904785156 94.72700500488281 L 279.10198974609375 94.72700500488281 Q 282.5199890136719 94.72700500488281 289.843994140625 74.12100219726562 L 289.843994140625 73.8280029296875 L 287.0119934082031 73.24200439453125 L 286.8160095214844 73.24200439453125 Q 279.0039978027344 73.24200439453125 275.6839904785156 86.71900939941406 L 275.6839904785156 89.84400939941406 Z M 319.1409912109375 65.43000793457031 Q 329.0039978027344 66.21099853515625 327.14801025390625 89.16000366210938 L 326.36700439453125 97.85200500488281 Q 325.781005859375 101.36700439453125 322.9490051269531 101.1719970703125 Q 320.31298828125 100.97700500488281 320.6050109863281 97.656005859375 L 321.28900146484375 88.18400573730469 Q 322.656005859375 71.4840087890625 318.3590087890625 71.19100952148438 Q 313.7699890136719 70.80101013183594 311.718994140625 88.57400512695312 L 312.1090087890625 99.12100219726562 Q 311.91400146484375 101.1719970703125 308.78900146484375 101.27000427246094 Q 305.1759948730469 100.97700500488281 306.05499267578125 90.91799926757812 L 303.71099853515625 68.55500793457031 Q 303.906005859375 66.30900573730469 307.3240051269531 66.11300659179688 Q 309.375 66.21099853515625 309.7659912109375 70.50801086425781 L 310.156005859375 70.60501098632812 Q 314.5509948730469 65.13700866699219 319.1409912109375 65.43000793457031 Z M 353.5159912109375 64.94100952148438 Q 357.22698974609375 64.94100952148438 357.22698974609375 75.29299926757812 Q 357.81298828125 80.95700073242188 357.81298828125 101.1719970703125 Q 357.81298828125 126.07400512695312 353.2229919433594 145.80099487304688 Q 349.3160095214844 153.22300720214844 342.6759948730469 153.22300720214844 Q 333.78900146484375 153.22300720214844 323.3399963378906 142.67599487304688 L 322.7539978027344 141.21099853515625 Q 323.43798828125 138.08599853515625 325.8789978027344 138.08599853515625 Q 326.75799560546875 138.08599853515625 330.7619934082031 142.08999633789062 Q 337.8909912109375 147.36300659179688 341.7969970703125 147.36300659179688 L 343.6520080566406 147.36300659179688 Q 349.7070007324219 147.36300659179688 350.6839904785156 123.0469970703125 Q 352.0509948730469 112.01200866699219 352.0509948730469 99.6090087890625 L 352.0509948730469 96.19100952148438 Q 347.46099853515625 98.43800354003906 344.9219970703125 98.43800354003906 Q 336.91400146484375 98.43800354003906 333.593994140625 88.86700439453125 Q 332.22698974609375 85.35200500488281 332.22698974609375 81.44500732421875 Q 332.22698974609375 70.60501098632812 341.21099853515625 66.21099853515625 L 345.31298828125 65.82000732421875 Q 347.5589904785156 65.82000732421875 349.80499267578125 67.28500366210938 L 350.4880065917969 67.28500366210938 Q 352.343994140625 64.94100952148438 353.5159912109375 64.94100952148438 M 342.0899963378906 71.58200073242188 Q 338.1839904785156 75 338.1839904785156 82.031005859375 Q 338.1839904785156 91.01600646972656 344.0429992675781 92.5780029296875 L 345.31298828125 92.5780029296875 Q 350.6839904785156 92.5780029296875 350.6839904785156 82.71499633789062 Q 349.9020080566406 71.97300720214844 345.50799560546875 71.97300720214844 L 342.0899963378906 71.58200073242188 Z" stroke-width="0.9999999789522281" stroke="#000000" fill="#000000" transform="matrix(1 0 0 1 4.08277 -1.48188)"/></g></g></svg>
